<svg viewBox="0 0 200 200" xmlns="http://www.w3.org/2000/svg">
<defs>
<linearGradient id="g11" x1="0" y1="0" x2="0" y2="1"><stop offset="0%" stop-color="#3a3a3a"/><stop offset="100%" stop-color="#161616"/></linearGradient>
</defs>
<rect x="32" y="76" width="136" height="56" rx="8" fill="url(#g11)" stroke="#000" stroke-width="1"/>
<g fill="#222" stroke="#0a0a0a" stroke-width="0.5">
<rect x="40" y="84" width="11" height="11" rx="2"/><rect x="53" y="84" width="11" height="11" rx="2"/><rect x="66" y="84" width="11" height="11" rx="2"/><rect x="79" y="84" width="11" height="11" rx="2"/><rect x="92" y="84" width="11" height="11" rx="2"/><rect x="105" y="84" width="11" height="11" rx="2"/><rect x="118" y="84" width="11" height="11" rx="2"/><rect x="131" y="84" width="11" height="11" rx="2"/><rect x="144" y="84" width="16" height="11" rx="2"/>
<rect x="40" y="98" width="11" height="11" rx="2"/><rect x="53" y="98" width="11" height="11" rx="2"/><rect x="66" y="98" width="11" height="11" rx="2"/><rect x="79" y="98" width="11" height="11" rx="2"/><rect x="92" y="98" width="11" height="11" rx="2"/><rect x="105" y="98" width="11" height="11" rx="2"/><rect x="118" y="98" width="11" height="11" rx="2"/><rect x="131" y="98" width="11" height="11" rx="2"/><rect x="144" y="98" width="16" height="11" rx="2"/>
<rect x="40" y="112" width="55" height="11" rx="2"/><rect x="98" y="112" width="62" height="11" rx="2"/>
</g>
<circle cx="46" cy="89" r="1.4" fill="#e8f542" opacity="0.9"/>
<circle cx="59" cy="89" r="1.4" fill="#fb4f67" opacity="0.7"/>
<circle cx="72" cy="89" r="1.4" fill="#22d3ee" opacity="0.7"/>
</svg>
